<?xml version="1.0" encoding="utf-8"?>
<svg viewBox="0 0 48 48" xmlns="http://www.w3.org/2000/svg">
  <path fill="#FF3D00" d="M 45.613 35.472 C 45.153 37.973 43.202 39.878 40.791 40.236 C 37.002 40.832 30.687 41.546 23.568 41.546 C 16.565 41.546 10.25 40.832 6.347 40.236 C 3.935 39.878 1.984 37.973 1.524 35.472 C 1.066 32.733 0.606 28.684 0.606 23.682 C 0.606 18.68 1.066 14.63 1.524 11.892 C 1.984 9.391 3.935 7.486 6.347 7.128 C 10.136 6.532 16.451 5.818 23.568 5.818 C 30.687 5.818 36.887 6.532 40.791 7.128 C 43.202 7.486 45.153 9.391 45.613 11.892 C 46.072 14.63 46.646 18.68 46.646 23.682 C 46.532 28.684 46.072 32.733 45.613 35.472 Z" style=""/>
  <path fill="#FFF" d="M 18.976 32.019 L 18.976 15.346 L 32.754 23.682 L 18.976 32.019 Z" style=""/>
</svg>